<svg xmlns="http://www.w3.org/2000/svg" viewBox="0 0 100 100">
  <defs>
    <linearGradient id="primaryGrad" x1="0%" y1="0%" x2="100%" y2="100%">
      <stop offset="0%" stop-color="#0284c7" />
      <stop offset="50%" stop-color="#2563eb" />
      <stop offset="100%" stop-color="#1d4ed8" />
    </linearGradient>
    <linearGradient id="ringGrad" x1="0%" y1="0%" x2="100%" y2="100%">
      <stop offset="0%" stop-color="#38bdf8" />
      <stop offset="100%" stop-color="#0ea5e9" />
    </linearGradient>
  </defs>

  <rect width="100" height="100" rx="28" fill="#030712" />
  <rect x="4" y="4" width="92" height="92" rx="24" fill="none" stroke="url(#ringGrad)" stroke-width="4" stroke-opacity="0.85" />
  <circle cx="50" cy="50" r="36" fill="url(#primaryGrad)" />

  <g transform="translate(30, 30) scale(1.65)">
    <path d="M22 16.92v3a2 2 0 0 1-2.18 2 19.79 19.79 0 0 1-8.63-3.07 19.5 19.5 0 0 1-6-6 19.79 19.79 0 0 1-3.07-8.67A2 2 0 0 1 4.11 2h3a2 2 0 0 1 2 1.72 12.84 12.84 0 0 0 .7 2.81 2 2 0 0 1-.45 2.11L8.09 9.91a16 16 0 0 0 6 6l1.27-1.27a2 2 0 0 1 2.11-.45 12.84 12.84 0 0 0 2.81.7A2 2 0 0 1 22 16.92z" 
          fill="#ffffff" 
          stroke="#ffffff" 
          stroke-width="0.5" 
          stroke-linecap="round" 
          stroke-linejoin="round" />
  </g>

  <circle cx="75" cy="25" r="9" fill="#10b981" stroke="#030712" stroke-width="3" />
</svg>
